<svg width="141" height="42" viewBox="0 0 141 42" fill="none" xmlns="http://www.w3.org/2000/svg">
<path d="M9.05771 18.2852C9.68229 17.8869 10.7599 17.6764 12.174 17.6764C13.6208 17.6764 15.1321 18.1342 16.6651 19.0369L17.1785 19.3388L18.6868 17.7971L17.8944 17.2949C16.0157 16.0988 14.0914 15.4924 12.174 15.4924C10.2263 15.4924 8.7836 15.8251 7.76684 16.5071C6.67105 17.2296 6.092 18.2894 6.092 19.5722C6.092 20.9435 7.13553 22.047 9.19362 22.8522C10.932 23.5332 12.5948 24.1851 14.1774 24.8111C15.3583 25.2677 16.0634 25.7978 16.0634 26.2286C16.0634 26.7522 15.8091 27.1712 15.2852 27.5097C14.6668 27.9116 13.5911 28.1241 12.174 28.1241C10.7273 28.1241 9.21635 27.6662 7.68319 26.7641L7.17579 26.465L5.64203 27.9996L6.44612 28.5071C8.33297 29.702 10.2601 30.3081 12.174 30.3081C14.0944 30.3081 15.5781 29.9662 16.5816 29.294C17.6712 28.5755 18.2469 27.515 18.2469 26.2286C18.2469 24.8354 17.2351 23.7624 15.1532 22.948C13.3922 22.2619 11.7204 21.6023 10.1706 20.9897C8.98981 20.5327 8.28496 20.0027 8.28496 19.5722C8.28496 19.0344 8.52538 18.636 9.05771 18.2852Z" fill="black"/>
<path d="M0.943359 41.4982H22.6473V6.22476V4.58262H20.6611H17.0404V6.22476H20.6611V39.5118H2.92956V2.04881H40.3793V39.5118H26.8232V41.4982H42.3654V0.0625H0.943359V41.4982Z" fill="black"/>
<path d="M27.9873 34.5124V16.8422H32.9166V14.856H27.9873V11.5984C27.9873 8.64639 29.6721 6.66293 32.1798 6.66293C33.7109 6.66293 34.5398 7.02172 35.876 8.2618L36.3105 8.66548L37.7133 7.09559L37.2956 6.70659C35.7555 5.27168 34.5521 4.54297 32.2519 4.54297C28.5714 4.54297 26.001 7.44416 26.001 11.5984V14.856H24.3579V16.8422H26.001V34.5124H27.9873Z" fill="black"/>
<path d="M38.2981 28.0317C38.2981 27.0681 37.5174 26.2871 36.5541 26.2871C35.5909 26.2871 34.8101 27.0681 34.8101 28.0317C34.8101 28.9953 35.5909 29.7762 36.5541 29.7762C37.5174 29.7762 38.2981 28.9953 38.2981 28.0317Z" fill="black"/>
<path d="M48.7202 12.9454C49.4543 12.4772 50.651 12.2396 52.2771 12.2396C53.9139 12.2396 55.62 12.7552 57.3471 13.772L57.7732 14.0236L59.1444 12.6217L58.4874 12.2028C56.4448 10.9031 54.3557 10.2443 52.2771 10.2443C50.1672 10.2443 48.6107 10.6003 47.521 11.3312C46.3551 12.1003 45.764 13.1811 45.764 14.5444C45.764 15.9651 46.8727 17.1192 49.0592 17.9755C50.9808 18.7276 52.8186 19.4481 54.5669 20.1398C55.9972 20.6933 56.785 21.3191 56.785 21.9016C56.785 22.5571 56.473 23.0776 55.8297 23.493C55.1016 23.9661 53.9064 24.2063 52.2771 24.2063C50.6403 24.2063 48.9342 23.6907 47.2071 22.6735L46.7857 22.4253L45.3909 23.8209L46.0579 24.2434C48.11 25.5428 50.2024 26.2012 52.2771 26.2012C54.3576 26.2012 55.9586 25.8352 57.0337 25.1149C58.1925 24.3502 58.7801 23.2691 58.7801 21.9016C58.7801 20.458 57.7056 19.3355 55.494 18.4702C53.547 17.7118 51.6987 16.9828 49.9876 16.306C48.5568 15.7527 47.7691 15.1268 47.7691 14.5444C47.7691 13.8807 48.0731 13.3716 48.7202 12.9454Z" fill="black"/>
<path d="M63.0445 17.1264C63.2011 16.1443 63.773 15.1542 64.7489 14.1776C66.0077 12.9187 67.3754 12.3065 68.93 12.3065C70.4678 12.3065 71.8354 12.9273 73.1099 14.2015C74.0836 15.1833 74.6553 16.1651 74.8142 17.1264H63.0445ZM68.93 10.2443C66.7977 10.2443 64.9179 11.0486 63.3453 12.6331C61.7591 14.2085 60.9544 16.0893 60.9544 18.2231C60.9544 20.3565 61.7584 22.2374 63.342 23.8097C64.9175 25.397 66.7977 26.2016 68.93 26.2016C71.0202 26.2016 72.633 25.778 73.723 24.943C74.7771 24.1355 75.5658 23.2563 76.134 22.2566L76.4263 21.743L74.8019 20.6721L74.462 21.2306C73.9746 22.02 73.3206 22.7311 72.5199 23.3413C71.738 23.9299 70.53 24.2288 68.93 24.2288C67.3225 24.2288 65.9552 23.6424 64.7489 22.4361C63.5997 21.2862 63.0918 20.2959 62.9757 18.9148H76.9462V18.2231C76.9462 16.1028 76.1352 14.2223 74.5367 12.6348C72.9514 11.0487 71.0653 10.2443 68.93 10.2443Z" fill="black"/>
<path d="M86.4468 3.02344H81.5939V5.11861H84.3523V24.1778H80.0615V26.2731H91.0438V24.1778H86.4468V3.02344Z" fill="black"/>
<path d="M104.216 2.89844C102.772 2.89844 101.481 3.45216 100.375 4.54661C99.3009 5.62077 98.7565 6.9244 98.7565 8.4208V10.3819H96.2954V12.1704H98.7565V26.2733H100.851V12.1704H104.835V10.3819H100.851V8.4208C100.851 7.42232 101.17 6.61834 101.825 5.96242C102.554 5.23349 103.319 4.89373 104.232 4.89373C105.166 4.89373 105.97 5.24317 106.682 5.95624L107.129 6.42121L108.529 4.98808L108.087 4.54661C106.994 3.4528 105.691 2.89844 104.216 2.89844Z" fill="black"/>
<path d="M115.965 7.38778C116.358 7.38778 116.699 7.24655 116.978 6.96786C117.252 6.69315 117.397 6.34295 117.397 5.95465C117.397 5.54193 117.248 5.18697 116.978 4.94118C116.69 4.65372 116.35 4.50781 115.965 4.50781C115.579 4.50781 115.241 4.65109 114.973 4.92026C114.68 5.18889 114.519 5.55629 114.519 5.95465C114.519 6.33452 114.668 6.68503 114.951 6.96786C115.23 7.24655 115.571 7.38778 115.965 7.38778Z" fill="black"/>
<path d="M117.401 10.3828H112.241V12.1713H115.306V24.1793H110.709V26.2742H121.998V24.1793H117.401V10.3828Z" fill="black"/>
<path d="M127.125 17.1264C127.282 16.1443 127.854 15.1546 128.83 14.1776C130.088 12.9187 131.456 12.3065 133.012 12.3065C134.548 12.3065 135.917 12.9273 137.19 14.2015C138.165 15.1836 138.736 16.1655 138.895 17.1264H127.125ZM141 18.2231C141 16.0936 140.194 14.2132 138.605 12.6348C137.018 11.0487 135.135 10.2443 133.004 10.2443C130.874 10.2443 128.995 11.0486 127.422 12.6331C125.837 14.2076 125.034 16.0885 125.034 18.2231C125.034 20.3565 125.838 22.2366 127.422 23.8097C128.998 25.397 130.878 26.2016 133.01 26.2016C135.1 26.2016 136.713 25.778 137.804 24.943C138.858 24.1355 139.646 23.2563 140.214 22.2572L140.508 21.7433L138.882 20.6721L138.542 21.2306C138.055 22.02 137.402 22.7311 136.601 23.3413C135.819 23.9299 134.61 24.2288 133.012 24.2288C131.403 24.2288 130.036 23.6424 128.83 22.4361C127.681 21.2862 127.172 20.2961 127.057 18.9148H141V18.2231Z" fill="black"/>
<path d="M52.8883 34.3309C52.8378 34.1298 52.7646 33.9689 52.6682 33.8485C52.5722 33.7281 52.445 33.6311 52.2868 33.5576C52.1283 33.4837 51.9621 33.4471 51.7876 33.4471C51.4998 33.4471 51.2525 33.5395 51.0456 33.7244C50.8944 33.8593 50.7804 34.0614 50.703 34.3309H52.8883ZM52.8883 35.1206L53.2061 35.2878C53.1019 35.4925 52.9816 35.658 52.8448 35.7839C52.7082 35.9096 52.5544 36.0051 52.3837 36.0709C52.213 36.1364 52.0193 36.169 51.8038 36.169C51.3254 36.169 50.9514 36.0123 50.6819 35.6989C50.4121 35.3854 50.2773 35.0308 50.2773 34.6354C50.2773 34.2638 50.3914 33.932 50.6197 33.6411C50.9094 33.2708 51.2965 33.0859 51.7822 33.0859C52.2819 33.0859 52.6811 33.2753 52.9795 33.6545C53.1917 33.9223 53.2994 34.2566 53.3031 34.6571H50.6654C50.6725 34.9979 50.7812 35.277 50.9916 35.4947C51.2021 35.7127 51.4619 35.8214 51.7714 35.8214C51.9206 35.8214 52.0658 35.7956 52.2069 35.7437C52.3483 35.6916 52.4684 35.6227 52.5671 35.5367C52.6661 35.4508 52.773 35.3122 52.8883 35.1206Z" fill="black"/>
<path d="M54.4183 33.1603H54.8199L55.8037 35.2981L56.7759 33.1603H57.1802L55.8382 36.0928H55.7683L54.4183 33.1603Z" fill="black"/>
<path d="M60.9112 34.3309C60.8608 34.1298 60.7874 33.9689 60.6912 33.8485C60.5951 33.7281 60.4679 33.6311 60.3098 33.5576C60.1512 33.4837 59.9849 33.4471 59.8105 33.4471C59.5227 33.4471 59.2754 33.5395 59.0687 33.7244C58.9174 33.8593 58.8033 34.0614 58.7259 34.3309H60.9112ZM60.9112 35.1206L61.229 35.2878C61.1249 35.4925 61.0046 35.658 60.8676 35.7839C60.7311 35.9096 60.5775 36.0051 60.4068 36.0709C60.2358 36.1364 60.0423 36.169 59.8267 36.169C59.3483 36.169 58.9744 36.0123 58.7048 35.6989C58.4351 35.3854 58.3003 35.0308 58.3003 34.6354C58.3003 34.2638 58.4143 33.932 58.6427 33.6411C58.9323 33.2708 59.3196 33.0859 59.8052 33.0859C60.3049 33.0859 60.7041 33.2753 61.0024 33.6545C61.2146 33.9223 61.3224 34.2566 61.3259 34.6571H58.6884C58.6956 34.9979 58.8043 35.277 59.0146 35.4947C59.225 35.7127 59.4849 35.8214 59.7943 35.8214C59.9435 35.8214 60.0888 35.7956 60.2298 35.7437C60.3712 35.6916 60.4913 35.6227 60.59 35.5367C60.6891 35.4508 60.7959 35.3122 60.9112 35.1206Z" fill="black"/>
<path d="M62.5767 33.1612H62.9621V33.5897C63.077 33.421 63.198 33.2945 63.3258 33.2111C63.453 33.1276 63.586 33.0859 63.7244 33.0859C63.8286 33.0859 63.9398 33.119 64.0584 33.1856L63.8618 33.5035C63.7829 33.4693 63.7162 33.4522 63.6626 33.4522C63.5369 33.4522 63.4152 33.5041 63.2988 33.6073C63.182 33.7107 63.0929 33.871 63.032 34.0884C62.9851 34.2556 62.9621 34.5934 62.9621 35.1016V36.0937H62.5767V33.1612Z" fill="black"/>
<path d="M64.7538 33.1603H65.1526L66.1598 35.4185L67.1383 33.1603H67.5396L65.791 37.1656H65.3927L65.9569 35.8705L64.7538 33.1603Z" fill="black"/>
<path d="M69.0464 32.0723H69.4236V33.1611H70.0217V33.4872H69.4236V36.0936H69.0464V33.4872H68.5317V33.1611H69.0464V32.0723Z" fill="black"/>
<path d="M71.2769 32.0273H71.6541V33.685C71.8069 33.4838 71.9747 33.3331 72.1581 33.2334C72.3411 33.1338 72.5396 33.0839 72.7532 33.0839C72.9723 33.0839 73.1669 33.1397 73.3366 33.2511C73.5066 33.3625 73.6318 33.5121 73.7124 33.6996C73.7936 33.8877 73.8337 34.1818 73.8337 34.5823V36.0917H73.4568V34.6929C73.4568 34.3551 73.4433 34.1297 73.4162 34.0165C73.3694 33.8226 73.2844 33.6766 73.1614 33.5784C73.0386 33.4804 72.8775 33.4316 72.6779 33.4316C72.4498 33.4316 72.2453 33.507 72.065 33.658C71.8843 33.8089 71.7655 33.9957 71.7082 34.2185C71.6719 34.3623 71.6541 34.6284 71.6541 35.0166V36.0917H71.2769V32.0273Z" fill="black"/>
<path d="M75.2748 33.1607H75.6521V36.093H75.2748V33.1607ZM75.4621 31.9531C75.5479 31.9531 75.6212 31.9838 75.6822 32.045C75.7427 32.1059 75.7733 32.1795 75.7733 32.266C75.7733 32.3503 75.7427 32.4232 75.6822 32.4841C75.6212 32.5452 75.5479 32.5758 75.4621 32.5758C75.378 32.5758 75.3055 32.5452 75.2448 32.4841C75.1839 32.4232 75.1536 32.3503 75.1536 32.266C75.1536 32.1795 75.1839 32.1059 75.2448 32.045C75.3055 31.9838 75.378 31.9531 75.4621 31.9531Z" fill="black"/>
<path d="M77.126 33.1612H77.5032V33.6867C77.6542 33.4855 77.8211 33.3351 78.0045 33.2355C78.1876 33.1357 78.3869 33.0859 78.6023 33.0859C78.8214 33.0859 79.0159 33.1414 79.1859 33.2529C79.3557 33.3642 79.4809 33.5144 79.5617 33.7029C79.6426 33.8917 79.6829 34.1853 79.6829 34.5844V36.0937H79.3059V34.6949C79.3059 34.3571 79.2918 34.1317 79.2639 34.0184C79.22 33.8242 79.1363 33.6783 79.0124 33.5804C78.8884 33.4824 78.7266 33.4336 78.527 33.4336C78.2989 33.4336 78.0948 33.5089 77.9141 33.66C77.7335 33.8107 77.6146 33.9978 77.5572 34.2205C77.521 34.3661 77.5032 34.6318 77.5032 35.0181V36.0937H77.126V33.1612Z" fill="black"/>
<path d="M82.5958 33.4498C82.3821 33.4498 82.1834 33.5015 82.0003 33.6048C81.8172 33.708 81.6735 33.8508 81.5693 34.0335C81.4652 34.2158 81.413 34.4129 81.413 34.6249C81.413 34.9464 81.5207 35.2125 81.7363 35.4226C81.9517 35.6328 82.2311 35.7382 82.5741 35.7382C82.9208 35.7382 83.1997 35.634 83.411 35.4254C83.6219 35.217 83.7276 34.9428 83.7276 34.6032C83.7276 34.3823 83.679 34.185 83.5821 34.0118C83.4849 33.8383 83.3477 33.7014 83.1696 33.6008C82.992 33.5002 82.8004 33.4498 82.5958 33.4498ZM83.7087 33.1615H84.0856V35.4982C84.0856 35.9096 84.05 36.2105 83.978 36.401C83.8792 36.6707 83.7078 36.8782 83.4634 37.0238C83.2192 37.1691 82.9253 37.2421 82.5823 37.2421C82.3308 37.2421 82.1051 37.2064 81.9046 37.1352C81.7044 37.064 81.5414 36.9686 81.4157 36.8487C81.2899 36.7291 81.1741 36.5536 81.068 36.3231H81.4775C81.5891 36.517 81.7329 36.6608 81.9091 36.7542C82.0855 36.8475 82.304 36.8944 82.5646 36.8944C82.8217 36.8944 83.0391 36.8464 83.2162 36.7506C83.3935 36.6547 83.52 36.5345 83.5953 36.3895C83.6709 36.2441 83.7087 36.0101 83.7087 35.6869V35.5358C83.5664 35.7156 83.393 35.8534 83.188 35.9496C82.9829 36.0456 82.7654 36.0939 82.5354 36.0939C82.2656 36.0939 82.012 36.0271 81.7749 35.893C81.5375 35.7592 81.3542 35.579 81.2245 35.3526C81.0951 35.1262 81.0303 34.8774 81.0303 34.606C81.0303 34.3348 81.0978 34.0817 81.2325 33.8473C81.3677 33.6128 81.5541 33.4272 81.7923 33.2906C82.0307 33.1543 82.2818 33.0859 82.546 33.0859C82.7654 33.0859 82.9702 33.1311 83.1598 33.2219C83.3495 33.3128 83.5325 33.4623 83.7087 33.6707V33.1615Z" fill="black"/>
<path d="M87.4052 33.1603H87.7933L88.6919 35.2897L89.6271 33.1603H89.6956L90.637 35.2897L91.5531 33.1603H91.945L90.6719 36.0928H90.6017L89.6643 33.9932L88.7276 36.0928H88.6574L87.4052 33.1603Z" fill="black"/>
<path d="M93.0771 32.0273H93.4544V33.685C93.6072 33.4838 93.7749 33.3331 93.9583 33.2334C94.1413 33.1338 94.3398 33.0839 94.5535 33.0839C94.7726 33.0839 94.9671 33.1397 95.1369 33.2511C95.3068 33.3625 95.4321 33.5121 95.5127 33.6996C95.5938 33.8877 95.634 34.1818 95.634 34.5823V36.0917H95.257V34.6929C95.257 34.3551 95.2434 34.1297 95.2165 34.0165C95.1696 33.8226 95.0847 33.6766 94.9617 33.5784C94.8389 33.4804 94.6777 33.4316 94.4781 33.4316C94.25 33.4316 94.0456 33.507 93.8653 33.658C93.6846 33.8089 93.5658 33.9957 93.5084 34.2185C93.4721 34.3623 93.4544 34.6284 93.4544 35.0166V36.0917H93.0771V32.0273Z" fill="black"/>
<path d="M98.5451 33.4498C98.3354 33.4498 98.1414 33.5015 97.9639 33.6048C97.7861 33.7076 97.6447 33.8528 97.54 34.0394C97.4349 34.2261 97.3825 34.4234 97.3825 34.6318C97.3825 34.838 97.4355 35.0356 97.5411 35.2238C97.647 35.4123 97.7894 35.5592 97.968 35.6641C98.1463 35.7691 98.3381 35.8216 98.5424 35.8216C98.7486 35.8216 98.9443 35.7694 99.1292 35.6655C99.314 35.5614 99.456 35.4206 99.5557 35.2428C99.6553 35.0651 99.7052 34.8651 99.7052 34.6424C99.7052 34.3034 99.5935 34.0196 99.3699 33.7917C99.1467 33.5638 98.8716 33.4498 98.5451 33.4498ZM100.053 33.1615V36.0939H99.6809V35.5899C99.5227 35.782 99.3453 35.9267 99.1487 36.0237C98.9518 36.1207 98.7369 36.1693 98.5034 36.1693C98.0886 36.1693 97.7342 36.0189 97.4403 35.7177C97.1467 35.417 97 35.0506 97 34.6194C97 34.1973 97.1479 33.8362 97.4445 33.5359C97.7409 33.2359 98.0973 33.0859 98.5143 33.0859C98.7549 33.0859 98.9725 33.1372 99.1676 33.2396C99.3623 33.3419 99.5334 33.4957 99.6809 33.7004V33.1615H100.053Z" fill="black"/>
<path d="M101.919 32.0723H102.297V33.1611H102.895V33.4872H102.297V36.0936H101.919V33.4872H101.405V33.1611H101.919V32.0723Z" fill="black"/>
<path d="M106.053 33.1603H106.452L107.459 35.4185L108.437 33.1603H108.839L107.09 37.1656H106.692L107.256 35.8705L106.053 33.1603Z" fill="black"/>
<path d="M111.402 33.4552C111.089 33.4552 110.819 33.571 110.594 33.8028C110.369 34.0346 110.256 34.3151 110.256 34.6438C110.256 34.8557 110.307 35.0534 110.41 35.2369C110.513 35.42 110.652 35.5617 110.827 35.6613C111.001 35.761 111.193 35.8109 111.402 35.8109C111.612 35.8109 111.803 35.761 111.978 35.6613C112.153 35.5617 112.292 35.42 112.395 35.2369C112.497 35.0534 112.549 34.8557 112.549 34.6438C112.549 34.3151 112.436 34.0346 112.21 33.8028C111.983 33.571 111.714 33.4552 111.402 33.4552ZM111.404 33.0859C111.855 33.0859 112.23 33.2495 112.527 33.5764C112.797 33.8746 112.932 34.2277 112.932 34.6357C112.932 35.0454 112.789 35.4034 112.504 35.7097C112.218 36.0162 111.852 36.1693 111.404 36.1693C110.954 36.1693 110.586 36.0162 110.301 35.7097C110.016 35.4034 109.874 35.0454 109.874 34.6357C109.874 34.2298 110.008 33.8772 110.278 33.5792C110.575 33.2504 110.95 33.0859 111.404 33.0859Z" fill="black"/>
<path d="M114.27 33.1603H114.648V34.5294C114.648 34.8636 114.666 35.0939 114.702 35.2194C114.756 35.3992 114.858 35.5412 115.01 35.6455C115.163 35.7497 115.344 35.8016 115.554 35.8016C115.765 35.8016 115.943 35.7508 116.09 35.6493C116.237 35.5479 116.338 35.4146 116.393 35.2491C116.431 35.1359 116.45 34.896 116.45 34.5294V33.1603H116.835V34.5996C116.835 35.0038 116.788 35.3084 116.694 35.5133C116.6 35.718 116.458 35.8783 116.268 35.9943C116.079 36.1102 115.841 36.1681 115.556 36.1681C115.27 36.1681 115.032 36.1102 114.84 35.9943C114.649 35.8783 114.506 35.7169 114.412 35.5091C114.317 35.3016 114.27 34.9894 114.27 34.5727V33.1603Z" fill="black"/>
<path d="M120.58 33.1612H120.957V33.6867C121.108 33.4855 121.275 33.3351 121.459 33.2355C121.642 33.1357 121.841 33.0859 122.056 33.0859C122.276 33.0859 122.47 33.1414 122.64 33.2529C122.81 33.3642 122.935 33.5144 123.016 33.7029C123.096 33.8917 123.137 34.1853 123.137 34.5844V36.0937H122.76V34.6949C122.76 34.3571 122.746 34.1317 122.718 34.0184C122.674 33.8242 122.59 33.6783 122.466 33.5804C122.342 33.4824 122.181 33.4336 121.981 33.4336C121.753 33.4336 121.549 33.5089 121.368 33.66C121.188 33.8107 121.069 33.9978 121.011 34.2205C120.975 34.3661 120.957 34.6318 120.957 35.0181V36.0937H120.58V33.1612Z" fill="black"/>
<path d="M127.104 34.3309C127.053 34.1298 126.98 33.9689 126.883 33.8485C126.787 33.7281 126.66 33.6311 126.502 33.5576C126.344 33.4837 126.178 33.4471 126.004 33.4471C125.715 33.4471 125.467 33.5395 125.262 33.7244C125.11 33.8593 124.996 34.0614 124.918 34.3309H127.104ZM127.104 35.1206L127.422 35.2878C127.317 35.4925 127.197 35.658 127.06 35.7839C126.924 35.9096 126.77 36.0051 126.6 36.0709C126.429 36.1364 126.235 36.169 126.019 36.169C125.541 36.169 125.167 36.0123 124.897 35.6989C124.628 35.3854 124.493 35.0308 124.493 34.6354C124.493 34.2638 124.607 33.932 124.835 33.6411C125.125 33.2708 125.513 33.0859 125.998 33.0859C126.497 33.0859 126.897 33.2753 127.195 33.6545C127.407 33.9223 127.515 34.2566 127.518 34.6571H124.881C124.889 34.9979 124.997 35.277 125.207 35.4947C125.418 35.7127 125.677 35.8214 125.987 35.8214C126.136 35.8214 126.281 35.7956 126.423 35.7437C126.564 35.6916 126.684 35.6227 126.782 35.5367C126.881 35.4508 126.988 35.3122 127.104 35.1206Z" fill="black"/>
<path d="M131.38 34.3309C131.329 34.1298 131.256 33.9689 131.16 33.8485C131.064 33.7281 130.937 33.6311 130.778 33.5576C130.62 33.4837 130.454 33.4471 130.279 33.4471C129.991 33.4471 129.744 33.5395 129.538 33.7244C129.386 33.8593 129.272 34.0614 129.194 34.3309H131.38ZM131.38 35.1206L131.697 35.2878C131.594 35.4925 131.473 35.658 131.336 35.7839C131.2 35.9096 131.046 36.0051 130.876 36.0709C130.704 36.1364 130.512 36.169 130.296 36.169C129.817 36.169 129.443 36.0123 129.174 35.6989C128.904 35.3854 128.769 35.0308 128.769 34.6354C128.769 34.2638 128.884 33.932 129.111 33.6411C129.401 33.2708 129.788 33.0859 130.274 33.0859C130.774 33.0859 131.173 33.2753 131.472 33.6545C131.684 33.9223 131.791 34.2566 131.795 34.6571H129.157C129.164 34.9979 129.274 35.277 129.483 35.4947C129.694 35.7127 129.953 35.8214 130.263 35.8214C130.413 35.8214 130.558 35.7956 130.699 35.7437C130.841 35.6916 130.96 35.6227 131.059 35.5367C131.157 35.4508 131.265 35.3122 131.38 35.1206Z" fill="black"/>
<path d="M134.607 33.4478C134.396 33.4478 134.202 33.4994 134.025 33.6028C133.847 33.7057 133.706 33.8509 133.601 34.0375C133.497 34.2242 133.443 34.4215 133.443 34.6299C133.443 34.8362 133.497 35.0337 133.603 35.2219C133.709 35.4104 133.85 35.5573 134.029 35.6622C134.207 35.7672 134.399 35.8197 134.603 35.8197C134.81 35.8197 135.005 35.7675 135.19 35.6635C135.375 35.5593 135.517 35.4186 135.617 35.2408C135.717 35.0632 135.765 34.8632 135.765 34.6405C135.765 34.3015 135.655 34.0177 135.43 33.7898C135.207 33.5619 134.933 33.4478 134.607 33.4478ZM136.114 32.0273V36.092H135.742V35.588C135.584 35.78 135.406 35.9248 135.21 36.0218C135.012 36.1188 134.798 36.1674 134.564 36.1674C134.15 36.1674 133.795 36.0169 133.501 35.7158C133.208 35.415 133.062 35.0487 133.062 34.6176C133.062 34.1955 133.209 33.8343 133.505 33.534C133.802 33.234 134.158 33.0839 134.575 33.0839C134.816 33.0839 135.033 33.1353 135.229 33.2377C135.423 33.3401 135.595 33.4938 135.742 33.6985V32.0273H136.114Z" fill="black"/>
</svg>
